<?xml version="1.0" encoding="utf-8"?>
<!-- Generator: Adobe Illustrator 21.0.0, SVG Export Plug-In . SVG Version: 6.00 Build 0)  -->
<svg version="1.1"
	 id="Ebene_1" xmlns:cc="http://creativecommons.org/ns#" xmlns:dc="http://purl.org/dc/elements/1.1/" xmlns:rdf="http://www.w3.org/1999/02/22-rdf-syntax-ns#" xmlns:svg="http://www.w3.org/2000/svg"
	 xmlns="http://www.w3.org/2000/svg" xmlns:xlink="http://www.w3.org/1999/xlink" x="0px" y="0px" viewBox="0 0 68 68"
	 style="enable-background:new 0 0 68 68;" xml:space="preserve">
<style type="text/css">
	.st0{fill:#FBB03B;}
	.st1{fill:none;stroke:#FFFFFF;stroke-width:3.5528;stroke-miterlimit:10;}
	.st2{fill:none;stroke:#FFFFFF;stroke-width:3.5008;stroke-miterlimit:10;}
	.st3{fill:#FFFFFF;}
</style>
<rect class="st0" width="68" height="68"/>
<g>
	<line class="st1" x1="34.1" y1="17.4" x2="17.1" y2="46.4"/>
	<line class="st2" x1="34.1" y1="17.4" x2="51.1" y2="46.4"/>
	<g>
		<path class="st3" d="M28.8,51.1c0,2-1.6,3.6-3.6,3.6H13c-2,0-3.6-1.6-3.6-3.6v-9.4c0-2,1.6-3.6,3.6-3.6h12.2c2,0,3.6,1.6,3.6,3.6
			L28.8,51.1L28.8,51.1z"/>
	</g>
	<g id="g3419">
		<path class="st3" d="M43.8,22.1c0,2-1.6,3.6-3.6,3.6H28c-2,0-3.6-1.6-3.6-3.6v-9.4c0-2,1.6-3.6,3.6-3.6h12.2c2,0,3.6,1.6,3.6,3.6
			L43.8,22.1L43.8,22.1z"/>
	</g>
	<g>
		<path class="st3" d="M58.8,51.1c0,2-1.6,3.6-3.6,3.6H43c-2,0-3.6-1.6-3.6-3.6v-9.4c0-2,1.6-3.6,3.6-3.6h12.2c2,0,3.6,1.6,3.6,3.6
			V51.1z"/>
	</g>
</g>
</svg>
